<!DOCTYPE svg PUBLIC "-//W3C//DTD SVG 1.1//EN" "http://www.w3.org/Graphics/SVG/1.1/DTD/svg11.dtd">

<!-- Uploaded to: SVG Repo, www.svgrepo.com, Transformed by: SVG Repo Mixer Tools -->
<svg fill="#ffffff" viewBox="-6.5 0 32 32" version="1.1" xmlns="http://www.w3.org/2000/svg">

<g id="SVGRepo_bgCarrier" stroke-width="0"/>

<g id="SVGRepo_tracerCarrier" stroke-linecap="round" stroke-linejoin="round"/>

<g id="SVGRepo_iconCarrier"> <title>youtube</title> <path d="M3.063 10.438v3.906h1.625v-3.906l2.188-6.438h-1.719l-1.281 4.188-1.281-4.188h-1.781zM7.438 10.688c0 1.438 0.125 1.969 0.313 2.531 0.344 0.906 0.969 1.344 1.938 1.344s1.625-0.438 1.969-1.344c0.188-0.563 0.313-1.094 0.313-2.531s-0.125-2.219-0.313-2.781c-0.344-0.906-1-1.344-1.969-1.344s-1.594 0.438-1.938 1.344c-0.188 0.594-0.313 1.344-0.313 2.781zM17.313 14.344v-7.563h-1.5v4.531c0 0.469-0.031 0.844-0.094 1.031-0.094 0.375-0.313 0.531-0.594 0.531s-0.469-0.156-0.563-0.469c-0.031-0.188-0.063-0.531-0.063-0.969v-4.656h-1.438v5.75c0 1.344 0.469 2.031 1.438 2.031 0.563 0 1.063-0.344 1.344-1.063v0.844h1.469zM10.438 10.531v0.563c0 0.906 0 0.906-0.031 1.031-0.094 0.625-0.344 0.969-0.719 0.969-0.406 0-0.625-0.375-0.719-1.125v-1.656c0-0.781 0-1.281 0.031-1.438 0.094-0.563 0.313-0.813 0.688-0.813s0.625 0.344 0.719 0.938c0.031 0.188 0.031 0.688 0.031 1.531zM3.188 15.406h12.656c1.75 0 3.188 1.469 3.188 3.219v6.156c0 1.75-1.438 3.219-3.188 3.219h-12.656c-1.75 0-3.188-1.469-3.188-3.219v-6.156c0-1.75 1.438-3.219 3.188-3.219zM4.313 18.781h1.313v-1.313h-3.781v1.313h1.313v6.688h1.156v-6.688zM11.125 25.469v-0.656c0.188 0.5 0.531 0.813 0.969 0.813 0.531 0 0.906-0.375 1.063-1.156 0.094-0.375 0.156-1.031 0.156-1.969 0-0.969-0.063-1.656-0.125-2.063-0.156-0.781-0.563-1.156-1.094-1.156-0.406 0-0.719 0.25-0.906 0.688v-2.5h-1.031v8h0.969zM15.063 22.656h2.125v-0.469c0-1.125-0.125-1.844-0.313-2.219-0.25-0.438-0.688-0.688-1.25-0.688-0.594 0-1.031 0.25-1.281 0.656-0.156 0.25-0.281 0.625-0.313 1.125-0.031 0.219-0.063 0.656-0.063 1.219 0 0.719 0.031 1.188 0.063 1.438 0.031 0.563 0.156 1.031 0.344 1.344 0.25 0.375 0.688 0.563 1.219 0.563s0.938-0.156 1.188-0.469 0.375-0.813 0.375-1.531v-0.25h-1.031c0 0.813-0.156 1.188-0.5 1.188-0.25 0-0.438-0.188-0.5-0.563-0.063-0.188-0.063-0.531-0.063-0.969v-0.375zM8.156 25.469h1.063v-6.031h-1.094v3.844c0 0.344 0 0.594-0.063 0.75-0.063 0.25-0.188 0.375-0.406 0.375-0.188 0-0.344-0.094-0.406-0.344-0.063-0.125-0.063-0.375-0.063-0.688v-3.938h-1v4.719c0 0.969 0.281 1.469 1 1.469 0.406 0 0.75-0.281 0.969-0.781v0.625zM15.063 21.531v-0.094c-0.031-0.344 0-0.656 0.094-0.844 0.094-0.156 0.25-0.25 0.438-0.25 0.219 0 0.375 0.125 0.438 0.344 0.063 0.156 0.063 0.406 0.063 0.75v0.25h-1.031v-0.156zM11.75 20.438c0.25 0 0.406 0.313 0.469 0.844v1.188s0 1.094-0.031 1.188c-0.031 0.531-0.188 0.813-0.438 0.813-0.281 0-0.5-0.219-0.563-0.656-0.031-0.156-0.031-0.531-0.031-1.094 0-0.781 0-1.219 0.031-1.344 0.063-0.594 0.25-0.938 0.563-0.938z"/> </g>

</svg>