<?xml version="1.0" encoding="UTF-8"?>
<svg width="96px" height="96px" viewBox="0 0 96 96" version="1.1" xmlns="http://www.w3.org/2000/svg" xmlns:xlink="http://www.w3.org/1999/xlink">
    <title>AR/VR</title>
    <g id="AR/VR" stroke="none" stroke-width="1" fill="none" fill-rule="evenodd">
        <rect id="Rectangle" fill="#FFFFFF" opacity="0" x="0" y="0" width="96" height="96"></rect>
        <path d="M82.6292135,23.5 C85.2461137,23.5 87.7554209,24.5465935 89.6057002,26.4081354 C91.4593833,28.2731019 92.5,30.8027433 92.5,33.44 L92.5,33.44 L92.5,64.432 C92.5,66.6035252 91.6258267,68.5698774 90.2112322,69.9930825 C88.7999222,71.412983 86.8504344,72.292 84.6966292,72.292 L84.6966292,72.292 L62.3745212,72.2920119 C59.6335961,72.2810813 57.1008204,70.8223563 55.6999669,68.4522098 L55.6999669,68.4522098 L53.1202735,64.0919448 C52.7097295,63.3804131 52.1265195,62.8056525 51.4417672,62.4081984 C50.7522483,62.0079777 49.9597421,61.787469 49.1370787,61.788 L49.1370787,61.788 L46.8638889,61.7880003 C46.0402579,61.787469 45.2477517,62.0079777 44.5582328,62.4081984 C43.8734805,62.8056525 43.2902705,63.3804131 42.8797265,64.0919448 L42.8797265,64.0919448 L40.299696,68.4527799 C38.8991796,70.8223563 36.3664039,72.2810813 33.6314607,72.292 L33.6314607,72.292 L11.3033708,72.292 C9.1495656,72.292 7.20007777,71.412983 5.78876779,69.9930825 C4.37417325,68.5698774 3.5,66.6035252 3.5,64.432 L3.5,64.432 L3.5,33.44 C3.5,30.6940986 4.60557664,28.2077465 6.39429984,26.4081354 C8.17973848,24.6118289 10.6460802,23.5 13.3707865,23.5 L13.3707865,23.5 Z" id="Path" stroke="#222222" stroke-width="3" fill-rule="nonzero"></path>
        <path d="M26.3953332,36.7079758 C29.1051514,36.7079758 31.5609805,37.8080684 33.3448629,39.5888982 C35.1319729,41.3729501 36.2449509,43.8399484 36.265992,46.5706902 C36.2815167,48.5855112 35.6923125,50.5055836 34.6375269,52.1173659 C33.5841741,53.7269586 32.0663888,55.0291168 30.2230132,55.8099962 C28.3816137,56.5900384 26.3972862,56.7726996 24.518724,56.4062878 C22.6391059,56.0396701 20.8655519,55.1234364 19.4465336,53.7068463 C18.0254036,52.2881481 17.1002946,50.5080335 16.720745,48.6172214 C16.3409787,46.7253299 16.5073244,44.722442 17.2702437,42.8590542 C18.0323817,40.9975747 19.3147509,39.4590572 20.9072495,38.3861976 C22.4974945,37.314856 24.3969802,36.7079758 26.3953332,36.7079758 Z" id="Path" stroke="#222222" stroke-width="3" fill-rule="nonzero"></path>
        <path d="M69.7076935,36.7079758 C72.4175117,36.7079758 74.8733407,37.8080684 76.6572231,39.5888982 C78.4443331,41.3729501 79.5573111,43.8399484 79.5783522,46.5706902 C79.5938769,48.5855112 79.0046727,50.5055836 77.9498871,52.1173659 C76.8965343,53.7269586 75.3787491,55.0291168 73.5353734,55.8099962 C71.6939739,56.5900384 69.7096464,56.7726996 67.8310842,56.4062878 C65.9514661,56.0396701 64.1779121,55.1234364 62.7588938,53.7068463 C61.3377638,52.2881481 60.4126548,50.5080335 60.0331052,48.6172214 C59.6533389,46.7253299 59.8196846,44.722442 60.582604,42.8590542 C61.344742,40.9975747 62.6271112,39.4590572 64.2196097,38.3861976 C65.8098548,37.314856 67.7093405,36.7079758 69.7076935,36.7079758 Z" id="Path" stroke="#222222" stroke-width="3" fill-rule="nonzero"></path>
    </g>
</svg>