<?xml version="1.0" encoding="UTF-8"?>
<svg width="96px" height="96px" viewBox="0 0 96 96" version="1.1" xmlns="http://www.w3.org/2000/svg" xmlns:xlink="http://www.w3.org/1999/xlink">
    <title>Build New Products and Apps</title>
    <g id="Build-New-Products-and-Apps" stroke="none" stroke-width="1" fill="none" fill-rule="evenodd">
        <rect id="Rectangle" fill="#FFFFFF" opacity="0" x="0" y="0" width="96" height="96"></rect>
        <g id="Group-19" transform="translate(2.000000, 14.000000)">
            <path d="M82.0476253,61.5652174 C83.5026839,61.5652174 83.1588482,61.5652174 86.0689655,61.5652174 C88.2400159,61.5652174 90,59.842487 90,57.7173913 L90,3.84782609 C90,1.72273042 88.2400159,0 86.0689655,0 L15.3103448,0 C13.1392944,0 11.3793103,1.72273042 11.3793103,3.84782609 C11.3793103,6.73838018 11.3793103,6.60798345 11.3793103,8.0532605" id="Path" stroke="#222222" stroke-width="3" fill-rule="nonzero"></path>
            <path d="M79.6034483,7.76086957 C80.3495749,7.76086957 81.0263267,8.05529973 81.5157196,8.53523577 C81.9944156,9.00468161 82.2931034,9.65248904 82.2931034,10.3695652 L82.2931034,10.3695652 L82.2931034,67.8913043 C82.2931034,68.6083805 81.9944156,69.256188 81.5157196,69.7256338 C81.0263267,70.2055698 80.3495749,70.5 79.6034483,70.5 L79.6034483,70.5 L4.18965517,70.5 C3.44352858,70.5 2.76677678,70.2055698 2.27738388,69.7256338 C1.79868787,69.256188 1.5,68.6083805 1.5,67.8913043 L1.5,67.8913043 L1.5,10.3695652 C1.5,9.65248904 1.79868787,9.00468161 2.27738388,8.53523577 C2.76677678,8.05529973 3.44352858,7.76086957 4.18965517,7.76086957 L4.18965517,7.76086957 Z" id="Path" stroke="#222222" stroke-width="3" fill-rule="nonzero"></path>
            <line x1="1.03448276" y1="19.3043478" x2="80.6896552" y2="19.3043478" id="Path-2" stroke="#222222" stroke-width="3"></line>
            <path d="M42.87568,26.0869565 L60,32.0443403 L57.3253946,54.5107331 L42.8984554,62.6086957 L28.5372327,54.614397 L25.862069,32.1510836 L42.87568,26.0869565 Z M42.8833852,28.1572694 L27.9644943,33.4747444 L30.3356064,53.3839369 L42.8943912,60.3750153 L55.526356,53.2845924 L57.8959235,33.3800933 L42.8833852,28.1572694 Z M42.8422576,30.0416866 L42.8428369,30.0436422 L53.1683738,52.3505973 L49.645689,52.284498 L47.4786701,47.2005218 L42.8513327,47.1960239 L42.8422576,47.2005218 L38.6316027,47.2005218 L36.6522647,52.214683 L32.9706689,52.2837157 L42.8422576,30.0416866 Z M42.8685175,37.1735683 L39.9303079,44.2323104 L42.8420645,44.2323104 L43.0077334,44.2377861 L46.2027491,44.2377861 L42.8685175,37.1735683 Z" id="Shape" fill="#222222" fill-rule="nonzero"></path>
        </g>
    </g>
</svg>