<?xml version="1.0" encoding="UTF-8"?>
<svg width="96px" height="96px" viewBox="0 0 96 96" version="1.1" xmlns="http://www.w3.org/2000/svg" xmlns:xlink="http://www.w3.org/1999/xlink">
    <title>Data Visualization</title>
    <g id="Data-Visualization" stroke="none" stroke-width="1" fill="none" fill-rule="evenodd">
        <rect id="Rectangle" fill="#FFFFFF" opacity="0" x="0" y="0" width="96" height="96"></rect>
        <path d="M89.4,15.5 C90.2621514,15.5 91.0448437,15.8338183 91.6105806,16.3802687 C92.1571595,16.9082142 92.5,17.6362273 92.5,18.4431818 L92.5,18.4431818 L92.5,80.6477273 C92.5,81.4546818 92.1571595,82.1826949 91.6105806,82.7106403 C91.0448437,83.2570908 90.2621514,83.5909091 89.4,83.5909091 L89.4,83.5909091 L6.6,83.5909091 C5.73784863,83.5909091 4.95515627,83.2570908 4.38941935,82.7106403 C3.84284049,82.1826949 3.5,81.4546818 3.5,80.6477273 L3.5,80.6477273 L3.5,18.4431818 C3.5,17.6362273 3.84284049,16.9082142 4.38941935,16.3802687 C4.95515627,15.8338183 5.73784863,15.5 6.6,15.5 L6.6,15.5 Z" id="Path" stroke="#222222" stroke-width="3" fill-rule="nonzero"></path>
        <path d="M33.5885911,40.0114995 C37.6055509,40.0162405 41.2391759,41.706457 43.871334,44.4293792 C46.5215437,47.1709754 48.1580398,50.9581439 48.1626506,55.1380066 C48.1626506,59.3210444 46.5273019,63.1101903 43.8767035,65.8521886 C41.244199,68.5754691 37.6087321,70.2645126 33.5903614,70.2645126 C29.5719907,70.2645126 25.9365239,68.5754691 23.3040194,65.8521886 C20.653421,63.1101903 19.0180723,59.3210444 19.0180723,55.1380066 C19.0180723,50.9549688 20.653421,47.1658229 23.3040194,44.4238246 C25.9365239,41.700544 29.5719907,40.0115005 33.5885911,40.0114995 Z" id="Path" stroke="#222222" stroke-width="3" fill-rule="nonzero"></path>
        <line x1="3.43262162" y1="28.1554332" x2="92.4354934" y2="28.1554332" id="Path-2" stroke="#222222" stroke-width="3"></line>
        <line x1="77.373494" y1="39.5569551" x2="77.373494" y2="72.8099671" id="Path-3" stroke="#222222" stroke-width="3"></line>
        <line x1="67.9644031" y1="49.5328587" x2="67.9644031" y2="72.8099671" id="Path-3-Copy" stroke="#222222" stroke-width="3"></line>
        <line x1="58.5553122" y1="57.2918949" x2="58.5553122" y2="72.8099671" id="Path-3-Copy-2" stroke="#222222" stroke-width="3"></line>
        <polyline id="Path-4" stroke="#222222" stroke-width="3" points="33.5903614 40.1137455 33.5903614 55.1380066 48 55.1380066"></polyline>
    </g>
</svg>