<svg width="140" height="46" viewBox="0 0 140 46" fill="none" xmlns="http://www.w3.org/2000/svg">
<path d="M9.16701 5.13159H4.42108V28.3394H9.16701V5.13159Z" fill="#E34D25"/>
<path fill-rule="evenodd" clip-rule="evenodd" d="M25.4851 28.3395H20.9093V18.165C20.9096 16.5569 21.0745 14.8211 19.7228 14.5554C19.3248 14.4926 18.9171 14.5606 18.5609 14.7491C17.4871 15.3029 17.4954 16.4489 17.4954 18.092V28.3395H12.9438C12.9458 22.9883 13.1515 17.269 12.7985 12.1568C14.3235 12.1651 15.8488 12.1733 17.3744 12.1813C17.4145 12.714 17.4548 13.247 17.4954 13.7801C17.5033 13.7639 17.5116 13.7476 17.5196 13.7317C18.1387 13.1056 18.3783 12.4989 19.2869 12.1087C21.3802 11.209 23.9758 12.0537 24.8556 13.4654C25.5858 14.6362 25.4851 16.5789 25.4851 18.5039V28.3395Z" fill="#E34D25"/>
<path fill-rule="evenodd" clip-rule="evenodd" d="M41.3195 28.3395H36.768V18.165C36.7683 16.5779 36.9147 14.8176 35.5815 14.5554C35.2378 14.5072 34.8875 14.5489 34.5647 14.6765C33.3426 15.1372 33.3298 16.3953 33.3302 18.092V28.3395H28.7782V17.5109C28.7782 15.9539 28.9939 13.4495 28.633 12.1814L28.6572 12.1569H33.2088C33.2572 12.7062 33.3056 13.2553 33.3541 13.8044V13.756C33.9258 13.0811 34.3096 12.4561 35.1943 12.0842C37.3631 11.1731 39.8974 12.1278 40.7629 13.5619C41.4459 14.6938 41.3195 16.6312 41.3195 18.4555V28.3395Z" fill="#E34D25"/>
<path fill-rule="evenodd" clip-rule="evenodd" d="M84.1739 5.13165H88.7254C88.7176 6.41534 88.7095 7.69925 88.7014 8.98338H84.1739V5.13165Z" fill="#EFA523"/>
<path fill-rule="evenodd" clip-rule="evenodd" d="M134.558 16.6144H131.459C131.153 16.6144 130.5 16.7095 130.297 16.566C130.621 15.4183 129.986 14.4248 129.231 14.2162C128.142 13.915 126.748 14.6839 127.077 15.815C127.364 16.8033 128.605 17.3661 129.425 17.85C131.685 19.1832 135.982 20.6713 135.09 24.7786C134.994 25.2811 134.813 25.764 134.558 26.2076C133.768 27.493 132.299 28.0655 130.563 28.4121L129.135 28.5335C128.213 28.6488 127.279 28.5996 126.374 28.3882C124.093 27.816 122.328 26.0706 122.767 22.9857H127.174C127.147 24.3234 127.43 25.5687 128.432 25.8686C129.696 26.2467 131.295 25.102 130.781 23.8094C130.175 22.2856 127.932 21.5426 126.544 20.7329C125.802 20.3107 125.083 19.8498 124.389 19.352C123.414 18.6345 122.484 17.4318 122.84 15.5729C122.953 15.1934 123.066 14.8138 123.179 14.4341C124.249 12.0117 128.321 11.0394 131.628 12.0844C133.609 12.7098 134.592 14.0073 134.558 16.6144Z" fill="#EFA523"/>
<path fill-rule="evenodd" clip-rule="evenodd" d="M81.0265 28.3395H76.4746V18.1407C76.4746 16.5759 76.6312 14.8121 75.3123 14.5554C74.9508 14.5034 74.5817 14.5538 74.2472 14.7007C73.0601 15.1998 73.0365 16.4157 73.0365 18.1165V28.3395H68.4851V18.165C68.4854 16.572 68.6398 14.8155 67.2984 14.5554C66.9366 14.5034 66.5678 14.5538 66.2329 14.7007C65.0591 15.1943 65.0466 16.4378 65.0466 18.1165V28.3395H60.4947C60.497 22.9744 60.5563 17.3243 60.3743 12.1567H64.9257C64.9659 12.7061 65.0061 13.2553 65.0466 13.8043L65.0952 13.7801C65.6563 12.0941 68.5396 11.2491 70.6635 12.0841C71.8734 12.5597 72.1766 13.1889 72.8188 14.216H72.8431C73.7339 11.5141 78.54 10.8309 80.2756 13.2713C81.1112 14.4456 81.0265 16.3561 81.0265 18.407V28.3395Z" fill="#EFA523"/>
<path fill-rule="evenodd" clip-rule="evenodd" d="M104.463 28.3395H99.8874V18.165C99.8874 16.5599 100.052 14.8176 98.7007 14.5554C98.3028 14.4929 97.895 14.5609 97.5387 14.7491C96.4637 15.3029 96.4732 16.4479 96.4732 18.092V28.3395H91.9214C91.924 22.9754 92.0319 17.2859 91.7762 12.1567C93.3015 12.165 94.8268 12.1732 96.352 12.1813C96.3465 12.4805 96.3771 13.6161 96.4976 13.7801V13.7317C97.1184 13.1042 97.3538 12.4999 98.2649 12.1087C100.356 11.2096 102.953 12.0568 103.834 13.4653C104.565 14.6349 104.463 16.5816 104.463 18.5039V28.3395Z" fill="#EFA523"/>
<path fill-rule="evenodd" clip-rule="evenodd" d="M84.1739 12.157C85.691 12.1649 87.2086 12.173 88.7254 12.1812V28.3397H84.1739V12.157Z" fill="#EFA523"/>
<path fill-rule="evenodd" clip-rule="evenodd" d="M120.079 25.8686V5.13162H115.649V13.4653H115.625C115.016 12.1543 112.145 11.24 110.226 11.9872C108.962 12.4794 108.287 13.5252 107.877 14.8701C107.108 17.3907 107.043 23.8565 108.023 26.1592C108.331 26.9217 108.873 27.5665 109.571 28.0005C110.233 28.3735 110.968 28.5972 111.725 28.6558C112.482 28.7143 113.243 28.6063 113.954 28.3395C114.729 28.0018 115.093 27.4366 115.6 26.8375V26.789C115.657 27.2979 115.714 27.8066 115.77 28.3152H120.2C120.16 27.4999 120.12 26.6844 120.079 25.8686ZM115.625 20.1513C115.617 20.8376 115.609 21.524 115.6 22.2106C115.435 23.341 115.625 24.4022 115.164 25.1902C115.041 25.3984 114.873 25.5761 114.672 25.7103C114.471 25.8445 114.242 25.9317 114.002 25.9654C111.837 26.3497 112.142 24.2137 111.896 22.598C111.88 21.8795 111.864 21.1608 111.847 20.4419C111.848 18.5795 111.715 16.2377 112.549 15.1609C112.808 14.8271 113.131 14.8299 113.567 14.6524C113.813 14.6284 114.061 14.6619 114.292 14.7501C114.523 14.8383 114.73 14.979 114.898 15.1609C115.731 16.2291 115.625 18.2499 115.625 20.1513Z" fill="#EFA523"/>
<path fill-rule="evenodd" clip-rule="evenodd" d="M49.0671 11.9279C44.3196 12.854 43.9471 17.2501 44.3553 22.3018C44.534 24.5188 45.0679 26.6665 46.5773 27.6824C48.6268 29.0612 55.4942 29.9879 57.0445 25.2797C57.9748 22.4568 58.345 14.9889 55.4411 12.9238C53.8971 11.8259 51.3211 11.4883 49.0671 11.9279Z" fill="#E34D25"/>
<path d="M5.60953 38.054V41.0902H4.51709V32.9735H6.91172C7.36436 32.9651 7.81567 33.0252 8.25034 33.1518C8.59665 33.2527 8.91784 33.4255 9.19294 33.6589C9.43967 33.8746 9.63096 34.1465 9.75066 34.4517C9.8771 34.7825 9.93955 35.1343 9.93468 35.4884C9.93892 35.8437 9.87154 36.1962 9.73651 36.5248C9.60653 36.8351 9.40814 37.1121 9.15614 37.3349C8.87919 37.574 8.55653 37.7542 8.20778 37.8647C7.78882 37.9973 7.35113 38.061 6.91172 38.054H5.60953ZM5.60953 37.1818H6.91168C7.19308 37.1867 7.47334 37.1447 7.74088 37.0573C7.96378 36.9842 8.1691 36.8656 8.34384 36.709C8.50536 36.5608 8.63117 36.3778 8.71182 36.1739C8.79663 35.9555 8.83885 35.7229 8.83627 35.4885C8.84873 35.2639 8.81244 35.0392 8.72987 34.8299C8.64727 34.6206 8.52035 34.4317 8.35788 34.2761C7.94698 33.9554 7.43115 33.7999 6.91153 33.84H5.60953V37.1818Z" fill="#333333"/>
<path d="M13.382 35.2618C13.7704 35.2562 14.1561 35.3273 14.517 35.4712C14.8441 35.6037 15.1378 35.8068 15.3773 36.0662C15.6207 36.3359 15.8058 36.6531 15.9208 36.9979C16.1738 37.7928 16.1738 38.6472 15.9208 39.4423C15.8054 39.786 15.6203 40.1021 15.3773 40.3707C15.1383 40.6301 14.8444 40.8323 14.517 40.9631C13.7854 41.2387 12.9785 41.2387 12.2469 40.9631C11.9189 40.832 11.6241 40.6297 11.3837 40.3707C11.1387 40.1025 10.9517 39.7864 10.8344 39.4423C10.5778 38.6476 10.5778 37.7925 10.8344 36.9979C10.9513 36.6527 11.1383 36.3355 11.3837 36.0662C11.6246 35.8072 11.9192 35.6041 12.2469 35.4712C12.6078 35.3273 12.9935 35.2561 13.382 35.2618ZM13.382 40.3821C13.6238 40.3991 13.8661 40.356 14.0873 40.2565C14.3085 40.1574 14.5018 40.0048 14.65 39.8129C14.9245 39.327 15.0687 38.778 15.0687 38.2198C15.0687 37.6617 14.9245 37.1129 14.65 36.6268C14.5023 36.4341 14.3092 36.281 14.0879 36.1811C13.8667 36.0813 13.6241 36.0378 13.382 36.0546C13.1251 36.0486 12.87 36.0989 12.6345 36.2019C12.426 36.2979 12.2444 36.4439 12.1056 36.6268C11.955 36.8306 11.8471 37.0627 11.7885 37.3092C11.7152 37.6086 11.6799 37.9159 11.6835 38.2239C11.6797 38.5312 11.715 38.8377 11.7885 39.1361C11.847 39.3811 11.9549 39.6114 12.1056 39.8129C12.2449 39.9945 12.4265 40.1393 12.6345 40.2351C12.8699 40.3383 13.1251 40.3884 13.382 40.3821Z" fill="#333333"/>
<path d="M16.7105 35.3523H17.5032C17.5763 35.3492 17.6483 35.3713 17.7072 35.4148C17.7567 35.4521 17.794 35.5034 17.8143 35.5621L18.9126 39.2551C18.943 39.3911 18.971 39.5222 18.9977 39.649C19.0243 39.7753 19.0466 39.9028 19.0655 40.031C19.0956 39.9028 19.1297 39.7753 19.1675 39.649C19.2053 39.5226 19.2448 39.3911 19.2863 39.2551L20.4977 35.5395C20.5161 35.4834 20.5506 35.4341 20.5969 35.3976C20.648 35.3587 20.711 35.3388 20.7752 35.3412H21.211C21.2778 35.3386 21.3435 35.3585 21.3977 35.3976C21.4453 35.4335 21.4808 35.483 21.4997 35.5395L22.6829 39.2551C22.7242 39.3874 22.761 39.5178 22.7934 39.646C22.8251 39.7742 22.8565 39.901 22.8867 40.0255C22.9056 39.901 22.9302 39.7709 22.9603 39.6346C22.9905 39.4986 23.0226 39.3719 23.0565 39.2551L24.1774 35.5621C24.1962 35.5017 24.234 35.449 24.2851 35.4117C24.339 35.3718 24.4047 35.3509 24.4718 35.3522H25.2304L23.3737 41.0902H22.5754C22.4772 41.0902 22.4092 41.0261 22.3715 40.8975L21.1034 37.0062C21.0735 36.9201 21.0489 36.8322 21.0298 36.743C21.0109 36.6542 20.9921 36.5664 20.9734 36.4795C20.9545 36.5664 20.9356 36.6552 20.9167 36.7459C20.8978 36.8361 20.8733 36.925 20.8431 37.0121L19.5582 40.8979C19.548 40.9521 19.5192 41.0011 19.4768 41.0361C19.4344 41.0711 19.381 41.0906 19.3259 41.0902H18.5674L16.7105 35.3523Z" fill="#333333"/>
<path d="M28.5137 35.2618C28.8387 35.2584 29.1615 35.3169 29.4647 35.4344C29.7483 35.5449 30.0051 35.7149 30.2176 35.933C30.4372 36.1635 30.606 36.4375 30.7132 36.7373C30.8372 37.0872 30.8976 37.4565 30.8914 37.8278C30.9008 37.9362 30.8833 38.0448 30.8405 38.1451C30.8179 38.1734 30.7883 38.1959 30.7546 38.2095C30.7209 38.2235 30.6842 38.2283 30.648 38.2239H26.8324C26.8332 38.5452 26.8829 38.8642 26.9796 39.17C27.0579 39.4168 27.185 39.6449 27.3533 39.8413C27.5078 40.0181 27.7018 40.1559 27.9195 40.2432C28.1537 40.3349 28.4036 40.3803 28.6551 40.3766C28.8763 40.381 29.0969 40.3515 29.3091 40.2885C29.4715 40.2384 29.6296 40.1751 29.7817 40.0992C29.8953 40.0417 30.0058 39.9783 30.1129 39.9094C30.1795 39.8589 30.259 39.8284 30.3422 39.8214C30.3797 39.8199 30.4172 39.8276 30.4508 39.8446C30.4845 39.8615 30.5133 39.8866 30.5346 39.9179L30.8178 40.2859C30.6902 40.4396 30.5393 40.5726 30.3705 40.6794C30.1954 40.7914 30.0084 40.8839 29.8128 40.9543C29.6133 41.0265 29.4078 41.0803 29.1987 41.1156C28.9911 41.1514 28.7809 41.1694 28.5704 41.1694C28.1957 41.1735 27.8237 41.1053 27.4748 40.9683C27.1464 40.8382 26.8508 40.637 26.6089 40.3795C26.3544 40.1025 26.1607 39.7753 26.04 39.4191C25.8972 38.9961 25.8283 38.5514 25.836 38.1049C25.8331 37.7236 25.8953 37.3442 26.0201 36.9836C26.1345 36.6501 26.3145 36.343 26.5494 36.0802C26.7844 35.8219 27.072 35.6171 27.393 35.4796C27.7474 35.3299 28.129 35.2557 28.5137 35.2618ZM28.5363 36.0036C28.3261 35.9921 28.1158 36.0236 27.9182 36.0962C27.7205 36.1688 27.5398 36.281 27.3871 36.4259C27.0893 36.7475 26.9062 37.1587 26.8665 37.5954H29.9856C29.9881 37.3773 29.9556 37.1602 29.8894 36.9525C29.8303 36.7669 29.7339 36.5954 29.6062 36.4485C29.4808 36.3062 29.3252 36.1939 29.1507 36.1198C28.956 36.0395 28.7469 35.9999 28.5363 36.0036Z" fill="#333333"/>
<path d="M32.3574 41.0902V35.3523H32.9347C33.0154 35.3435 33.0964 35.3659 33.1612 35.4148C33.2111 35.476 33.2407 35.5512 33.2459 35.63L33.3142 36.5248C33.4818 36.1609 33.7306 35.8402 34.0413 35.5874C34.2461 35.4354 34.4823 35.3311 34.7325 35.2821C34.9827 35.2331 35.2407 35.2408 35.4877 35.3043C35.6126 35.3388 35.7325 35.3892 35.8445 35.4543L35.7142 36.2076C35.7073 36.2486 35.6856 36.2857 35.6533 36.3118C35.6209 36.3378 35.5802 36.3511 35.5387 36.3492C35.4554 36.3429 35.3734 36.3248 35.2953 36.2954C35.146 36.2546 34.9914 36.2365 34.8368 36.2417C34.5157 36.2313 34.2022 36.3402 33.9566 36.5474C33.6923 36.7932 33.4896 37.098 33.3651 37.4369V41.0902H32.3574Z" fill="#333333"/>
<path d="M38.4598 33.5511C38.4606 33.6459 38.4403 33.7397 38.4005 33.8258C38.3615 33.91 38.3077 33.9867 38.2417 34.0524C38.1762 34.1183 38.0981 34.1712 38.0126 34.2081C37.9253 34.2461 37.8306 34.2654 37.7352 34.2648C37.6405 34.2655 37.5473 34.2462 37.4607 34.2081C37.2905 34.1323 37.1542 33.996 37.0786 33.8257C37.0403 33.7392 37.0212 33.6456 37.0223 33.5511C37.0215 33.4548 37.0407 33.3595 37.0786 33.2709C37.1147 33.1842 37.1678 33.1054 37.2341 33.0388C37.2993 32.9733 37.3759 32.9203 37.4607 32.8827C37.5473 32.8449 37.6405 32.8256 37.7352 32.8263C37.8306 32.8258 37.9249 32.845 38.0126 32.8827C38.0981 32.9198 38.1758 32.9728 38.2417 33.0388C38.3084 33.1058 38.3622 33.1845 38.4005 33.2709C38.4399 33.359 38.4602 33.4545 38.4598 33.5511ZM38.2333 35.3523V41.0902H37.2256V35.3523H38.2333Z" fill="#333333"/>
<path d="M40.2032 41.0902V35.3523H40.8033C40.8663 35.3476 40.9293 35.3664 40.9795 35.4051C41.0296 35.4438 41.0634 35.4997 41.0752 35.562L41.1544 36.185C41.3939 35.9172 41.6761 35.6913 41.9897 35.5164C42.3176 35.3416 42.6849 35.2539 43.0566 35.2617C43.3407 35.2562 43.6229 35.3092 43.8859 35.4174C44.1177 35.5157 44.3232 35.6671 44.4861 35.8593C44.6526 36.0618 44.7768 36.2958 44.8512 36.5474C44.937 36.8359 44.979 37.1358 44.9757 37.4368V41.0902H43.9677V37.4369C43.9902 37.0754 43.8852 36.7175 43.6708 36.4258C43.5566 36.3005 43.4154 36.203 43.2581 36.1407C43.1004 36.0783 42.931 36.0528 42.7622 36.0661C42.4701 36.0645 42.1823 36.1386 41.9274 36.2813C41.6573 36.434 41.4153 36.6312 41.2112 36.8647V41.0902H40.2032Z" fill="#333333"/>
<path d="M48.6098 35.256C48.8456 35.2544 49.0803 35.282 49.3095 35.3381C49.5172 35.3892 49.7166 35.4703 49.9008 35.579H51.4574V35.9529C51.4574 36.0772 51.3781 36.1565 51.2197 36.1907L50.5687 36.2812C50.6988 36.5351 50.7651 36.8171 50.761 37.1025C50.7647 37.3653 50.7095 37.6256 50.5997 37.8647C50.4947 38.0898 50.3421 38.2898 50.1528 38.4505C49.9527 38.6185 49.7221 38.7452 49.4734 38.8244C49.1945 38.9139 48.9027 38.9582 48.6098 38.9548C48.3538 38.9567 48.0988 38.9243 47.8516 38.8583C47.7444 38.9235 47.6512 39.0094 47.5768 39.1103C47.5193 39.1866 47.4869 39.2787 47.4836 39.3737C47.4802 39.4367 47.4939 39.4994 47.5226 39.5554C47.5514 39.6117 47.5945 39.6589 47.6475 39.6932C47.7809 39.7742 47.9294 39.8269 48.0837 39.8483C48.2875 39.8814 48.4938 39.8969 48.7001 39.895H49.4053C49.6414 39.8947 49.8776 39.916 50.11 39.9584C50.3252 39.9949 50.5334 40.0645 50.7271 40.1647C50.9044 40.2565 51.0543 40.3928 51.1626 40.56C51.2801 40.7575 51.3372 40.9848 51.3277 41.214C51.3266 41.4664 51.2632 41.7147 51.1431 41.9365C51.0127 42.1789 50.8321 42.3911 50.6137 42.5587C50.3606 42.7525 50.075 42.8999 49.7704 42.9946C49.406 43.108 49.0258 43.1633 48.6441 43.1578C48.2735 43.1633 47.9032 43.1217 47.5429 43.0333C47.2647 42.9662 46.9998 42.8531 46.7589 42.6987C46.5677 42.576 46.4074 42.4099 46.2917 42.2143C46.1904 42.0393 46.1366 41.8407 46.1362 41.6384C46.1296 41.372 46.2258 41.113 46.4048 40.9156C46.6097 40.7004 46.8631 40.5379 47.1439 40.4418C46.9917 40.3747 46.8584 40.2708 46.7559 40.1397C46.6531 39.9916 46.6023 39.8133 46.6115 39.6331C46.6126 39.5454 46.6277 39.4585 46.6568 39.3759C46.69 39.282 46.7368 39.1932 46.7957 39.1129C46.9379 38.918 47.1251 38.761 47.3417 38.6549C47.0691 38.5057 46.8396 38.288 46.6767 38.0231C46.512 37.7449 46.4288 37.426 46.4361 37.1026C46.4325 36.8399 46.4877 36.5797 46.5975 36.3409C46.7025 36.1156 46.8561 35.9164 47.0474 35.7575C47.2511 35.591 47.4843 35.4652 47.7352 35.3866C48.0181 35.2971 48.3132 35.2531 48.6098 35.256ZM50.3992 41.3813C50.4055 41.253 50.3628 41.127 50.2795 41.029C50.1915 40.9344 50.0806 40.864 49.9575 40.8242C49.805 40.7723 49.6477 40.7362 49.4878 40.7166C49.3017 40.6934 49.1146 40.6816 48.927 40.6824H48.3269C48.1298 40.6831 47.9338 40.6573 47.7437 40.6054C47.5462 40.6949 47.3686 40.8224 47.2201 40.98C47.0879 41.1237 47.0157 41.3127 47.019 41.5076C47.0186 41.6347 47.0529 41.7593 47.1185 41.8679C47.1932 41.9884 47.2975 42.0879 47.4213 42.1572C47.5812 42.2474 47.7536 42.3126 47.9334 42.3502C48.1725 42.4007 48.4168 42.4243 48.661 42.4209C48.9064 42.4235 49.1514 42.3985 49.3912 42.3458C49.5836 42.3049 49.7681 42.2327 49.9373 42.1325C50.0754 42.0507 50.1926 41.9379 50.2795 41.8031C50.3591 41.6767 50.4004 41.5305 50.3992 41.3813ZM48.6098 38.2865C48.7937 38.2898 48.9768 38.2607 49.1507 38.2014C49.2973 38.1509 49.4314 38.0699 49.5445 37.9634C49.6499 37.861 49.7309 37.7365 49.7821 37.5983C49.8359 37.4485 49.8628 37.2901 49.861 37.1308C49.8687 36.9766 49.844 36.8224 49.7888 36.6782C49.7339 36.5339 49.6495 36.4027 49.5408 36.2927C49.2737 36.0904 48.9477 35.9809 48.6124 35.9809C48.2775 35.9809 47.9515 36.0904 47.684 36.2927C47.576 36.4028 47.4917 36.5341 47.4368 36.6783C47.3819 36.8226 47.3572 36.9766 47.3649 37.1308C47.3627 37.2904 47.3904 37.4489 47.4464 37.5983C47.499 37.7365 47.5812 37.861 47.6877 37.9634C47.7993 38.0695 47.9323 38.1506 48.0778 38.2014C48.2488 38.2607 48.4289 38.2895 48.6098 38.2865Z" fill="#333333"/>
<path d="M56.7619 41.1809C56.571 41.1934 56.3795 41.1661 56.1997 41.1009C56.0199 41.0353 55.8556 40.9337 55.717 40.8014C55.4562 40.4993 55.3251 40.1065 55.3523 39.7083V36.1965H54.6615C54.6055 36.1982 54.551 36.1789 54.5086 36.1425C54.4865 36.1209 54.4696 36.0948 54.4589 36.066C54.4478 36.0371 54.4438 36.0062 54.4464 35.9756V35.5732L55.3858 35.4544L55.6183 33.6816C55.6242 33.6276 55.6504 33.5779 55.6916 33.5427C55.7362 33.5059 55.7926 33.4868 55.8501 33.489H56.3596V35.4658H58.0013V36.1965H56.3596V39.6401C56.3515 39.737 56.3629 39.8343 56.3931 39.9268C56.4233 40.0192 56.4716 40.1047 56.5353 40.178C56.5946 40.237 56.6654 40.2827 56.7435 40.3129C56.8212 40.3431 56.9045 40.3571 56.9881 40.3538C57.0813 40.356 57.1742 40.3412 57.2626 40.3114C57.3322 40.2867 57.3996 40.2554 57.4634 40.2178C57.5201 40.1839 57.568 40.1526 57.6078 40.1246C57.6376 40.0999 57.6741 40.0852 57.7124 40.0819C57.7423 40.0844 57.771 40.0948 57.796 40.1113C57.8207 40.1283 57.8406 40.1515 57.8539 40.1784L58.1483 40.6599C57.9663 40.8275 57.7526 40.9572 57.5201 41.042C57.2777 41.1341 57.0209 41.1809 56.7619 41.1809Z" fill="#333333"/>
<path d="M59.4282 41.0902V32.7469H60.4358V36.123C60.6705 35.8702 60.9461 35.6585 61.2507 35.4969C61.5698 35.3352 61.9235 35.2545 62.2808 35.2617C62.5653 35.2561 62.8475 35.3091 63.1105 35.4173C63.3423 35.5157 63.5478 35.667 63.7103 35.8592C63.8768 36.0618 64.001 36.2957 64.0758 36.5473C64.1613 36.8359 64.2033 37.1357 64.2 37.4367V41.0899H63.1927V37.4369C63.2152 37.0754 63.1098 36.7175 62.8954 36.4259C62.7812 36.3006 62.6401 36.203 62.4827 36.1406C62.3251 36.0783 62.1556 36.0528 61.9868 36.0661C61.6947 36.0645 61.407 36.1387 61.152 36.2813C60.882 36.434 60.6399 36.6313 60.4358 36.8647V41.0902H59.4282Z" fill="#333333"/>
<path d="M68.1741 35.2617C68.4991 35.2584 68.8218 35.3169 69.125 35.4344C69.4087 35.5449 69.6655 35.7149 69.8781 35.933C70.0976 36.1634 70.2664 36.4374 70.3732 36.7373C70.4974 37.0872 70.5578 37.4565 70.5519 37.8278C70.5611 37.9362 70.5438 38.0448 70.5007 38.145C70.4782 38.1734 70.4484 38.1959 70.4149 38.2099C70.381 38.2235 70.3441 38.2283 70.308 38.2239H66.4926C66.4937 38.5452 66.5431 38.8642 66.64 39.17C66.7181 39.4168 66.8452 39.6449 67.0136 39.8413C67.168 40.0181 67.3621 40.1555 67.5795 40.2432C67.8138 40.3349 68.064 40.3803 68.3156 40.3766C68.5366 40.381 68.7573 40.3515 68.9695 40.2885C69.132 40.2384 69.2901 40.175 69.4422 40.0992C69.5557 40.0417 69.6662 39.9783 69.7734 39.9094C69.8398 39.8589 69.9193 39.8284 70.0026 39.8214C70.0402 39.8199 70.0774 39.8276 70.1113 39.8446C70.1448 39.8615 70.1735 39.8866 70.1949 39.9179L70.4782 40.2859C70.3508 40.4396 70.1997 40.5726 70.031 40.6794C69.856 40.7914 69.6688 40.8839 69.4732 40.9543C69.2739 41.0265 69.0683 41.0803 68.859 41.1156C68.6516 41.1514 68.4412 41.1694 68.2309 41.1694C67.8562 41.1735 67.4841 41.1053 67.1352 40.9683C66.8069 40.8382 66.5111 40.637 66.2694 40.3795C66.0148 40.1025 65.821 39.7753 65.7002 39.419C65.5576 38.9961 65.4887 38.5514 65.4964 38.1049C65.4931 37.7236 65.5554 37.3441 65.6803 36.9836C65.7949 36.6501 65.975 36.343 66.2097 36.0802C66.4448 35.8218 66.7325 35.617 67.0534 35.4796C67.4078 35.33 67.7895 35.2558 68.1741 35.2617ZM68.1966 36.0036C67.9866 35.992 67.7762 36.0235 67.5784 36.0961C67.3809 36.1687 67.2 36.2809 67.0475 36.4258C66.7498 36.7475 66.5667 37.1587 66.5269 37.5954H69.646C69.6485 37.3773 69.6161 37.1602 69.5498 36.9525C69.4905 36.767 69.394 36.5955 69.2665 36.4485C69.1412 36.3062 68.9854 36.1939 68.8108 36.1198C68.6162 36.0394 68.4073 35.9999 68.1966 36.0036Z" fill="#333333"/>
<path d="M81.5961 37.0346C81.6034 37.6009 81.5054 38.1639 81.3072 38.6944C81.1274 39.173 80.85 39.6088 80.4923 39.9743C80.1338 40.3346 79.7035 40.615 79.2297 40.7984C78.7099 40.9985 78.1565 41.0972 77.5994 41.0902H74.5655V32.9735H77.5994C78.1565 32.9664 78.7095 33.0653 79.2297 33.265C79.7039 33.4489 80.1342 33.7306 80.4923 34.092C80.8493 34.4588 81.1267 34.8956 81.3072 35.3749C81.5054 35.9055 81.6034 36.4682 81.5961 37.0346ZM80.4694 37.0346C80.4764 36.5808 80.4075 36.129 80.2657 35.6979C80.1438 35.3294 79.9474 34.9901 79.6884 34.701C79.4371 34.4277 79.1277 34.2147 78.7828 34.0778C78.4059 33.9303 78.004 33.8573 77.5994 33.8626H75.6689V40.2009H77.5994C78.004 40.2064 78.4059 40.1331 78.7828 39.9857C79.1273 39.8494 79.4368 39.6372 79.6884 39.3653C79.9478 39.0775 80.1445 38.739 80.2657 38.3713C80.4075 37.9402 80.4764 37.4884 80.4694 37.0346Z" fill="#333333"/>
<path d="M84.347 33.5511C84.3478 33.6459 84.3275 33.7397 84.2877 33.8258C84.2487 33.9101 84.1949 33.9868 84.1289 34.0524C84.0633 34.1184 83.9852 34.1712 83.8998 34.2081C83.8124 34.2461 83.7181 34.2654 83.6227 34.2648C83.528 34.2656 83.4344 34.2462 83.3479 34.2081C83.1777 34.132 83.0417 33.9959 82.9658 33.8257C82.9279 33.7391 82.9087 33.6456 82.9094 33.5511C82.9091 33.4548 82.9282 33.3595 82.9658 33.2709C83.0019 33.1841 83.055 33.1053 83.1217 33.0388C83.1869 32.9732 83.2635 32.9203 83.3479 32.8827C83.4344 32.8448 83.528 32.8256 83.6227 32.8263C83.7178 32.8258 83.8124 32.845 83.8998 32.8827C83.9856 32.9197 84.0633 32.9727 84.1289 33.0388C84.196 33.1057 84.2498 33.1844 84.2877 33.2709C84.3271 33.359 84.3474 33.4545 84.347 33.5511ZM84.1204 35.3523V41.0902H83.1128V35.3523H84.1204Z" fill="#333333"/>
<path d="M88.021 35.256C88.2567 35.2544 88.4914 35.282 88.7202 35.3381C88.928 35.3892 89.1273 35.4703 89.3119 35.579H90.8685V35.9529C90.8685 36.0772 90.7893 36.1565 90.6309 36.1907L89.9799 36.2813C90.1103 36.5351 90.1762 36.8171 90.1722 37.1025C90.1759 37.3653 90.1206 37.6256 90.0108 37.8647C89.9058 38.0898 89.7533 38.2898 89.5635 38.4505C89.3639 38.6185 89.1329 38.7452 88.8842 38.8244C88.6053 38.9139 88.3139 38.9582 88.021 38.9548C87.7649 38.9567 87.51 38.9243 87.2624 38.8583C87.1555 38.9239 87.0623 39.0094 86.9879 39.1103C86.9304 39.1866 86.8976 39.2783 86.8943 39.3737C86.8914 39.4367 86.905 39.4994 86.9337 39.5554C86.9625 39.6117 87.0056 39.6589 87.0586 39.6932C87.1916 39.7742 87.3401 39.8269 87.4949 39.8483C87.6986 39.8814 87.9049 39.8969 88.1116 39.8951H88.8164C89.0529 39.8947 89.2887 39.9161 89.5212 39.9584C89.736 39.9949 89.9441 40.0645 90.1383 40.1647C90.3155 40.2565 90.4654 40.3928 90.5741 40.5601C90.6913 40.7575 90.7484 40.9848 90.7384 41.214C90.7373 41.4664 90.6743 41.7143 90.5546 41.9365C90.4238 42.1789 90.2433 42.3907 90.0252 42.5587C89.7717 42.7525 89.4862 42.8999 89.1815 42.9946C88.8171 43.1081 88.4369 43.1633 88.0552 43.1578C87.6846 43.1633 87.3143 43.1217 86.954 43.0333C86.6759 42.9658 86.411 42.8531 86.17 42.6987C85.9788 42.5761 85.8189 42.4099 85.7032 42.2143C85.6015 42.0393 85.5477 41.8407 85.5474 41.6384C85.5407 41.3717 85.6373 41.113 85.8163 40.9156C86.0208 40.7004 86.2743 40.5379 86.555 40.4418C86.4029 40.3744 86.2699 40.2705 86.1671 40.1397C86.0643 39.9912 86.0138 39.8133 86.023 39.6331C86.0237 39.5454 86.0389 39.4585 86.068 39.3759C86.1011 39.2816 86.1479 39.1932 86.2069 39.1129C86.2735 39.0215 86.3505 38.9379 86.436 38.8638C86.5325 38.7809 86.639 38.7106 86.7532 38.6546C86.4802 38.5057 86.2511 38.288 86.0882 38.0231C85.9232 37.7449 85.8399 37.4259 85.8473 37.1025C85.8436 36.8398 85.8989 36.5795 86.0086 36.3408C86.114 36.1155 86.2676 35.9163 86.4589 35.7574C86.6622 35.5909 86.8958 35.465 87.1463 35.3865C87.4293 35.297 87.7244 35.253 88.021 35.256ZM89.81 41.3813C89.8163 41.253 89.7735 41.127 89.691 41.029C89.6026 40.9344 89.4917 40.864 89.3686 40.8242C89.2161 40.7719 89.0584 40.7362 88.8985 40.7166C88.7125 40.6934 88.5253 40.6816 88.3382 40.6824H87.738C87.5413 40.6831 87.3449 40.6573 87.1548 40.6054C86.9573 40.6949 86.7794 40.8224 86.6313 40.9801C86.4986 41.1237 86.4268 41.3127 86.4301 41.5076C86.4297 41.6347 86.464 41.7593 86.5296 41.8679C86.6044 41.9884 86.7086 42.0879 86.8324 42.1572C86.992 42.2474 87.1647 42.3126 87.3445 42.3502C87.5836 42.4007 87.8275 42.4243 88.0722 42.4209C88.3175 42.4235 88.5625 42.3985 88.8024 42.3458C88.9947 42.3049 89.1793 42.2327 89.3484 42.1325C89.4865 42.0507 89.6037 41.9379 89.6906 41.8031C89.7699 41.6767 89.8115 41.5305 89.81 41.3813ZM88.021 38.2865C88.2048 38.2898 88.3875 38.2607 88.5614 38.2014C88.7081 38.1509 88.8425 38.0699 88.9553 37.9634C89.061 37.8614 89.1421 37.7365 89.1929 37.5983C89.2471 37.4485 89.274 37.2902 89.2725 37.1308C89.2799 36.9766 89.2555 36.8224 89.2003 36.6782C89.1454 36.5339 89.0606 36.4027 88.9523 36.2927C88.6852 36.0904 88.3592 35.9809 88.0239 35.9809C87.6886 35.9809 87.363 36.0904 87.0955 36.2927C86.9872 36.4028 86.9028 36.534 86.8479 36.6783C86.793 36.8225 86.7683 36.9766 86.7757 37.1308C86.7739 37.2904 86.8019 37.449 86.8579 37.5983C86.9102 37.7365 86.9923 37.861 87.0984 37.9634C87.2104 38.0695 87.3438 38.1506 87.4893 38.2014C87.6603 38.2607 87.8401 38.2895 88.021 38.2865Z" fill="#333333"/>
<path d="M93.4158 33.5511C93.4165 33.6459 93.3962 33.7397 93.3564 33.8258C93.3174 33.9101 93.2636 33.9868 93.1976 34.0524C93.1317 34.1184 93.054 34.1712 92.9685 34.2081C92.8808 34.2461 92.7865 34.2654 92.6911 34.2648C92.5967 34.2656 92.5028 34.2462 92.4166 34.2081C92.2464 34.132 92.1104 33.9959 92.0342 33.8257C91.9962 33.7391 91.9771 33.6456 91.9778 33.5511C91.9774 33.4548 91.9966 33.3595 92.0342 33.2709C92.0706 33.1841 92.1237 33.1053 92.1904 33.0388C92.2552 32.9732 92.3319 32.9203 92.4166 32.8827C92.5032 32.8448 92.5967 32.8256 92.6911 32.8263C92.7865 32.8258 92.8808 32.845 92.9685 32.8827C93.054 32.9197 93.1317 32.9727 93.1976 33.0388C93.2643 33.1057 93.3181 33.1844 93.3564 33.2709C93.3959 33.359 93.4161 33.4545 93.4158 33.5511ZM93.1892 35.3523V41.0902H92.1815V35.3523H93.1892Z" fill="#333333"/>
<path d="M96.8973 41.1809C96.7065 41.1934 96.5153 41.1661 96.3355 41.1009C96.1557 41.0353 95.9914 40.9337 95.8529 40.8014C95.592 40.4993 95.4609 40.1065 95.4881 39.7083V36.1965H94.7973C94.7413 36.1982 94.6868 36.1789 94.6444 36.1425C94.6223 36.1209 94.6054 36.0948 94.5943 36.066C94.5837 36.0371 94.5796 36.0062 94.5822 35.9756V35.5732L95.5217 35.4544L95.7538 33.6816C95.76 33.6276 95.7862 33.5779 95.8274 33.5427C95.872 33.5059 95.9284 33.4868 95.9859 33.489H96.4954V35.4658H98.1374V36.1965H96.4954V39.6401C96.4873 39.737 96.4987 39.8343 96.5289 39.9268C96.5591 40.0192 96.6074 40.1047 96.6708 40.178C96.7304 40.237 96.8012 40.2827 96.8793 40.3129C96.957 40.3431 97.0403 40.3571 97.1239 40.3538C97.2171 40.356 97.31 40.3412 97.3984 40.3114C97.468 40.2867 97.5354 40.2554 97.5992 40.2178C97.6559 40.1839 97.7038 40.1526 97.7436 40.1246C97.7734 40.0999 97.8099 40.0852 97.8486 40.0819C97.8784 40.0844 97.9072 40.0948 97.9319 40.1113C97.9565 40.1283 97.9764 40.1515 97.9901 40.1784L98.2844 40.6599C98.1021 40.8275 97.8884 40.9572 97.6559 41.042C97.4139 41.1341 97.1567 41.1809 96.8973 41.1809Z" fill="#333333"/>
<path d="M103.775 41.0902H103.328C103.246 41.0935 103.165 41.078 103.09 41.0449C103.057 41.0243 103.028 40.9963 103.008 40.9627C102.987 40.9296 102.974 40.8916 102.971 40.8522L102.858 40.3202C102.707 40.4558 102.56 40.5774 102.416 40.6853C102.276 40.7914 102.124 40.8824 101.963 40.9572C101.801 41.032 101.632 41.088 101.457 41.1245C101.26 41.1635 101.06 41.1823 100.86 41.1808C100.647 41.1823 100.436 41.151 100.234 41.0873C100.047 41.0294 99.8749 40.9336 99.7272 40.8058C99.5794 40.675 99.4626 40.5129 99.3849 40.3313C99.2954 40.1165 99.2519 39.8847 99.2574 39.6519C99.2589 39.4202 99.3234 39.1932 99.4442 38.9957C99.5945 38.761 99.802 38.5684 100.047 38.4361C100.388 38.2489 100.756 38.1137 101.137 38.0349C101.679 37.9218 102.231 37.8695 102.784 37.8791V37.4286C102.81 37.0665 102.709 36.7067 102.498 36.4112C102.393 36.2927 102.262 36.2 102.115 36.1402C101.968 36.0804 101.81 36.0551 101.652 36.0662C101.441 36.0607 101.231 36.0923 101.032 36.1596C100.88 36.2142 100.734 36.2844 100.596 36.3691C100.474 36.4464 100.368 36.5163 100.279 36.5785C100.204 36.6364 100.111 36.669 100.016 36.6719C99.9526 36.6733 99.89 36.6545 99.8377 36.6182C99.7876 36.5834 99.746 36.538 99.7161 36.4851L99.5348 36.1622C99.8299 35.8709 100.178 35.6384 100.559 35.4768C100.946 35.3218 101.36 35.2448 101.776 35.2501C102.069 35.2448 102.36 35.2988 102.631 35.4089C102.871 35.5079 103.085 35.6588 103.26 35.8507C103.435 36.0494 103.566 36.283 103.645 36.5361C103.734 36.8219 103.778 37.12 103.775 37.4195L103.775 41.0902ZM101.16 40.4727C101.324 40.4742 101.487 40.4562 101.647 40.4189C101.791 40.3843 101.93 40.3331 102.063 40.266C102.195 40.1986 102.32 40.1179 102.436 40.0255C102.56 39.9264 102.676 39.8184 102.784 39.7024V38.5186C102.388 38.5135 101.992 38.5429 101.601 38.607C101.329 38.6505 101.062 38.7279 100.809 38.8377C100.634 38.9099 100.481 39.0256 100.365 39.1737C100.273 39.2997 100.225 39.4515 100.226 39.6069C100.222 39.7414 100.247 39.8755 100.299 39.9997C100.344 40.1039 100.412 40.1968 100.498 40.2708C100.583 40.3427 100.684 40.395 100.792 40.4245C100.912 40.4576 101.035 40.4738 101.16 40.4727Z" fill="#333333"/>
<path d="M106.617 32.7469V41.0902H105.609V32.7469H106.617Z" fill="#333333"/>
<path d="M111.907 33.0103C111.97 33.0493 112.025 33.1002 112.069 33.1603L116.767 39.2776C116.756 39.1796 116.748 39.0845 116.745 38.9917C116.74 38.8992 116.739 38.8093 116.739 38.7227V32.9735H117.701V41.0902H117.146C117.071 41.0928 116.997 41.0773 116.928 41.0449C116.861 41.0069 116.802 40.9546 116.756 40.892L112.063 34.7803C112.07 34.8745 112.076 34.967 112.08 35.0576C112.083 35.1483 112.085 35.2314 112.085 35.307V41.0902H111.123V32.9735H111.689C111.763 32.969 111.838 32.9816 111.907 33.0103Z" fill="#333333"/>
<path d="M121.805 35.2618C122.13 35.2584 122.453 35.3169 122.756 35.4344C123.039 35.5449 123.296 35.7149 123.509 35.933C123.728 36.1634 123.897 36.4374 124.004 36.7373C124.128 37.0872 124.189 37.4565 124.183 37.8278C124.192 37.9362 124.174 38.0448 124.132 38.1451C124.109 38.1734 124.079 38.1959 124.046 38.2095C124.012 38.2235 123.975 38.2283 123.939 38.2239H120.124C120.124 38.5452 120.174 38.8642 120.271 39.17C120.349 39.4168 120.476 39.6449 120.645 39.8413C120.799 40.0181 120.993 40.1555 121.211 40.2432C121.445 40.3349 121.695 40.3803 121.947 40.3766C122.168 40.381 122.388 40.3515 122.601 40.2885C122.763 40.2384 122.921 40.1751 123.073 40.0992C123.187 40.0417 123.297 39.9783 123.404 39.9094C123.471 39.8589 123.55 39.8284 123.634 39.8214C123.671 39.8199 123.708 39.8276 123.742 39.8446C123.776 39.8615 123.805 39.8866 123.826 39.9179L124.109 40.2859C123.981 40.4396 123.831 40.5726 123.662 40.6794C123.487 40.7918 123.3 40.8839 123.104 40.9543C122.905 41.0265 122.699 41.0803 122.49 41.1156C122.283 41.1514 122.072 41.1694 121.862 41.1694C121.487 41.1735 121.115 41.1053 120.766 40.9683C120.438 40.8382 120.142 40.637 119.9 40.3795C119.646 40.1025 119.452 39.7753 119.331 39.4191C119.189 38.9961 119.12 38.5514 119.127 38.1049C119.124 37.7236 119.186 37.3441 119.311 36.9836C119.426 36.6501 119.606 36.343 119.841 36.0802C120.075 35.8219 120.363 35.617 120.684 35.4796C121.038 35.33 121.42 35.2557 121.805 35.2618ZM121.828 36.0036C121.617 35.992 121.407 36.0235 121.209 36.0961C121.012 36.1687 120.831 36.2809 120.678 36.4259C120.38 36.7475 120.197 37.1587 120.158 37.5954H123.277C123.279 37.3773 123.247 37.1602 123.18 36.9525C123.121 36.767 123.025 36.5955 122.898 36.4485C122.772 36.3062 122.616 36.1939 122.441 36.1198C122.247 36.0395 122.038 35.9999 121.828 36.0036Z" fill="#333333"/>
<path d="M126.923 38.1502L124.992 35.3523H125.96C126.023 35.3474 126.086 35.3613 126.141 35.3922C126.183 35.4226 126.217 35.4611 126.243 35.5053L127.647 37.658C127.683 37.5467 127.733 37.4403 127.794 37.3406L129.028 35.5281C129.06 35.4811 129.098 35.4384 129.142 35.4007C129.181 35.3678 129.231 35.3506 129.283 35.3523H130.211L128.281 38.0939L130.291 41.0902H129.322C129.251 41.0943 129.181 41.0711 129.127 41.025C129.081 40.9834 129.042 40.9348 129.011 40.881L127.568 38.6321C127.543 38.7357 127.503 38.8351 127.449 38.9265L126.113 40.881C126.076 40.9322 126.035 40.9804 125.991 41.0254C125.967 41.0475 125.939 41.0648 125.909 41.0762C125.878 41.0873 125.845 41.0921 125.813 41.0902H124.913L126.923 38.1502Z" fill="#333333"/>
<path d="M133.217 41.1809C133.027 41.1934 132.835 41.1661 132.656 41.1009C132.476 41.0353 132.311 40.9337 132.173 40.8014C131.912 40.4993 131.781 40.1065 131.808 39.7083V36.1965H131.117C131.061 36.1982 131.007 36.1789 130.965 36.1425C130.942 36.1209 130.925 36.0948 130.914 36.066C130.904 36.0371 130.9 36.0062 130.902 35.9756V35.5732L131.842 35.4544L132.074 33.6816C132.08 33.6276 132.106 33.5779 132.148 33.5427C132.192 33.5059 132.248 33.4868 132.306 33.489H132.815V35.4658H134.457V36.1965H132.815V39.6401C132.808 39.737 132.819 39.8343 132.849 39.9268C132.879 40.0192 132.927 40.1047 132.991 40.178C133.051 40.237 133.122 40.2827 133.199 40.3129C133.277 40.3431 133.361 40.3571 133.444 40.3538C133.538 40.356 133.63 40.3412 133.718 40.3114C133.788 40.2867 133.856 40.2554 133.92 40.2178C133.976 40.1839 134.024 40.1526 134.064 40.1246C134.094 40.0999 134.13 40.0852 134.169 40.0819C134.199 40.0844 134.227 40.0948 134.252 40.1113C134.277 40.1283 134.297 40.1515 134.31 40.1784L134.605 40.6599C134.422 40.8275 134.209 40.9572 133.976 41.042C133.734 41.1341 133.477 41.1809 133.217 41.1809Z" fill="#333333"/>
<path d="M46.8923 25.321V23.0986C46.8639 22.4148 47.0735 21.7423 47.4854 21.1957C47.8811 20.663 48.4588 20.1759 48.8243 19.6584C49.0239 19.3981 49.1164 19.0713 49.0829 18.745V17.0401C49.0829 16.7357 48.9609 16.5835 48.7333 16.5835C48.5052 16.5835 48.398 16.751 48.398 17.0554V18.334H46.9376V17.2075C46.9376 15.8527 47.166 15.1525 48.7484 15.1525C50.1937 15.1525 50.5433 15.7461 50.5433 16.9945V18.7754C50.5743 19.342 50.3956 19.9001 50.0415 20.3433C49.7066 20.7848 49.1437 21.3175 48.8091 21.7742C48.566 22.0456 48.4356 22.3993 48.4437 22.7635V23.9661H50.5433V25.3209L46.8923 25.321Z" fill="white"/>
<path d="M54.8936 23.4029C54.8936 24.6817 54.2699 25.3972 53.0526 25.3972C52.1401 25.3972 51.2275 25.0013 51.2275 23.4487V22.7181H52.6879V23.5247C52.6879 23.8291 52.7944 23.9813 53.0224 23.9813C53.2508 23.9813 53.3728 23.8291 53.3728 23.5247V20.7696C53.3728 20.4195 53.2206 20.313 53.0224 20.313C52.9502 20.3142 52.8795 20.3328 52.8157 20.3672C52.7524 20.4016 52.6982 20.4509 52.6577 20.5108H51.2275L51.4098 15.2135H54.6656V16.5681H52.7336L52.6271 19.3539H52.6879C52.8025 19.2332 52.9425 19.1393 53.0976 19.0788C53.2527 19.0183 53.4196 18.9927 53.5854 19.0037C54.2548 19.0037 54.8936 19.3387 54.8936 20.6021V23.4029Z" fill="white"/>
</svg>
