<?xml version="1.0" encoding="UTF-8"?>
<svg width="96px" height="96px" viewBox="0 0 96 96" version="1.1" xmlns="http://www.w3.org/2000/svg" xmlns:xlink="http://www.w3.org/1999/xlink">
    <title>Legacy Apps</title>
    <g id="Legacy-Apps" stroke="none" stroke-width="1" fill="none" fill-rule="evenodd">
        <g id="Group">
            <rect id="Rectangle" fill="#FFFFFF" opacity="0" x="0" y="0" width="96" height="96"></rect>
            <g id="Group-12" transform="translate(2.000000, 12.000000)" stroke="#FFFFFF" stroke-width="3">
                <path d="M4.6,1.5 L87.4,1.5 C88.2598769,1.5 89.0397612,1.83854235 89.60375,2.39027052 C90.1556752,2.93019738 90.5,3.67527694 90.5,4.5 L90.5,4.5 L90.5,67.5 C90.5,68.3247231 90.1556752,69.0698026 89.60375,69.6097295 C89.0397612,70.1614576 88.2598769,70.5 87.4,70.5 L87.4,70.5 L4.6,70.5 C3.74012315,70.5 2.96023884,70.1614576 2.39625004,69.6097295 C1.84432481,69.0698026 1.5,68.3247231 1.5,67.5 L1.5,67.5 L1.5,4.5 C1.5,3.67527694 1.84432481,2.93019738 2.39625004,2.39027052 C2.96023884,1.83854235 3.74012315,1.5 4.6,1.5 L4.6,1.5 L4.6,1.5 Z" id="Path" fill-rule="nonzero"></path>
                <path d="M31.3636364,41.2941176 C31.3636364,50.065699 38.3846255,57.1764706 47.0454545,57.1764706 C55.7062836,57.1764706 62.7272727,50.065699 62.7272727,41.2941176 C62.7173962,32.526683 55.7021893,25.4217675 47.0454545,25.4117647 C42.4576422,25.4117647 38.3299739,27.4070688 35.4623089,30.5875894 C34.7350835,31.3941533 33.5637948,33.1728753 33.0116768,34.1186712" id="Path" fill-rule="nonzero" transform="translate(47.045455, 41.294118) scale(-1, 1) translate(-47.045455, -41.294118) "></path>
                <polyline id="Path" points="53.3181818 46.5882353 46 41.2941176 46 31.7647059"></polyline>
                <polyline id="Path-Copy-2" transform="translate(58.545455, 30.705882) scale(-1, 1) rotate(-360.000000) translate(-58.545455, -30.705882) " points="62.7272727 34.9411765 54.3636364 34.9411765 54.3636364 26.4705882"></polyline>
                <line x1="1.43262162" y1="14.336449" x2="90.4354934" y2="14.336449" id="Path-2"></line>
            </g>
        </g>
    </g>
</svg>