<?xml version="1.0" encoding="UTF-8"?>
<svg width="96px" height="96px" viewBox="0 0 96 96" version="1.1" xmlns="http://www.w3.org/2000/svg" xmlns:xlink="http://www.w3.org/1999/xlink">
    <title>Native/Hybrid</title>
    <g id="Native/Hybrid" stroke="none" stroke-width="1" fill="none" fill-rule="evenodd">
        <rect id="Rectangle" fill="#FFFFFF" opacity="0" x="0" y="0" width="96" height="96"></rect>
        <rect id="Rectangle" fill="#FFFFFF" opacity="0" x="0" y="0" width="96" height="96"></rect>
        <g id="Group-17" transform="translate(4.000000, 12.000000)">
            <g id="Group-13" transform="translate(33.783968, 9.000000)" stroke="#FFFFFF" stroke-width="2">
                <path d="M1.49329713,30.9979867 C4.80802745,34.0962746 9.30563057,36 14.2590756,36 C24.4506762,36 32.7126008,27.9411255 32.7126008,18 C32.7126008,8.0588745 24.4506762,0 14.2590756,0 C8.51531482,0 3.38445775,2.5596601 0,6.57334221" id="Path"></path>
                <line x1="32.2160316" y1="18" x2="1.33321224" y2="18" id="Path-5-Copy-2"></line>
                <line x1="29.7160316" y1="8.5" x2="2.33321224" y2="8.5" id="Path-5-Copy-3"></line>
                <line x1="29.7160316" y1="27" x2="2.33321224" y2="27" id="Path-5-Copy-4"></line>
                <path d="M15.8562994,0.5 C21.0961208,4.38598867 23.7160316,10.1473055 23.7160316,17.7839506 C23.7160316,25.4205957 21.0493649,31.3259455 15.7160316,35.5" id="Path-5"></path>
                <path d="M5.85629943,0.5 C11.0961208,4.38598867 13.7160316,10.1473055 13.7160316,17.7839506 C13.7160316,25.4205957 11.0493649,31.3259455 5.71603156,35.5" id="Path-5-Copy-5" transform="translate(9.716032, 18.000000) scale(-1, 1) translate(-9.716032, -18.000000) "></path>
                <line x1="14.7160316" y1="0.5" x2="14.7160316" y2="35.5" id="Path-5-Copy"></line>
            </g>
            <path d="M30.3448276,65.7931034 L30.3448276,21.4137931 C30.3448276,19.5284074 28.8352894,18 26.9731801,18 L3.37164751,18 C1.50953801,18 0,19.5284074 0,21.4137931 L0,69.2068966 C0,71.0922823 1.50953801,72.6206897 3.37164751,72.6206897 L26.9731801,72.6206897 C28.8352894,72.6206897 30.3448276,71.0922823 30.3448276,69.2068966 L30.3448276,65.7931034 Z" id="Path" stroke="#FFFFFF" stroke-width="3" fill-rule="nonzero"></path>
            <path d="M7,18.4389277 L7,6.82758621 C7,3.05681447 10.019076,-1.59872116e-13 13.743295,-1.59872116e-13 L81.1762452,-1.59872116e-13 C84.9004642,-1.59872116e-13 87.9195402,3.05681447 87.9195402,6.82758621 L87.9195402,47.7931034 C87.9195402,51.5638752 84.9004642,54.6206897 81.1762452,54.6206897 L30.8343556,54.6206897" id="Path" stroke="#FFFFFF" stroke-width="3"></path>
            <g id="Group-18" transform="translate(31.344828, 54.620690)" fill="#FFFFFF">
                <rect id="Rectangle" x="7.08045977" y="-2.04281037e-14" width="3.03448276" height="13.1494253"></rect>
                <rect id="Rectangle-Copy" x="24.2758621" y="-2.04281037e-14" width="3.03448276" height="13.1494253"></rect>
                <rect id="Rectangle" x="1.0658141e-14" y="10.1149425" width="37.4252874" height="3.03448276"></rect>
            </g>
        </g>
        <g id="Group-19" transform="translate(9.000000, 44.000000)" stroke="#FFFFFF" stroke-width="2">
            <line x1="19.125" y1="9.64690954" x2="19.125" y2="17.1469095" id="Path-2" stroke-linecap="round" stroke-linejoin="round"></line>
            <line x1="0.125" y1="9.64690954" x2="0.125" y2="17.1469095" id="Path-2-Copy" stroke-linecap="round" stroke-linejoin="round"></line>
            <line x1="12.6076759" y1="21.4583729" x2="12.6076759" y2="25.9583729" id="Path-2-Copy-2" stroke-linecap="round" stroke-linejoin="round"></line>
            <line x1="6.60767589" y1="21.4583729" x2="6.60767589" y2="25.9583729" id="Path-2-Copy-3" stroke-linecap="round" stroke-linejoin="round"></line>
            <path d="M9.60767589,2.2083729 C11.3316274,2.2083729 12.9086922,2.7709877 14.1096249,3.70835223 C15.2661241,4.61103512 16.0739403,5.8633031 16.2960027,7.28600322 L16.2960027,7.28600322 L16.3576759,18.4583729 C16.3576759,19.0106577 16.1338183,19.5106577 15.7718895,19.8725865 C15.4099606,20.2345153 14.9099606,20.4583729 14.3576759,20.4583729 L14.3576759,20.4583729 L4.85767589,20.4583729 C4.30539114,20.4583729 3.80539114,20.2345153 3.44346233,19.8725865 C3.08153352,19.5106577 2.85767589,19.0106577 2.85767589,18.4583729 L2.85767589,18.4583729 L2.85767589,7.29207172 C3.10926266,5.86552774 3.93384162,4.60964164 5.10239389,3.70495602 C6.31002224,2.77001793 7.88545267,2.2083729 9.60767589,2.2083729 Z" id="Combined-Shape"></path>
            <line x1="2.61168019" y1="8.0833729" x2="16.504992" y2="8.0833729" id="Path-3"></line>
            <line x1="12.8576759" y1="2.41838807" x2="14.2121204" y2="-2.44249065e-14" id="Path-4" stroke-linecap="round"></line>
            <line x1="4.85767589" y1="2.41838807" x2="6.21212038" y2="-2.44249065e-14" id="Path-4-Copy" stroke-linecap="round" transform="translate(5.534898, 1.209194) scale(-1, 1) translate(-5.534898, -1.209194) "></line>
        </g>
    </g>
</svg>