<?xml version="1.0" encoding="UTF-8"?>
<svg width="96px" height="96px" viewBox="0 0 96 96" version="1.1" xmlns="http://www.w3.org/2000/svg" xmlns:xlink="http://www.w3.org/1999/xlink">
    <title>Experience Engineering</title>
    <g id="Experience-Engineering" stroke="none" stroke-width="1" fill="none" fill-rule="evenodd">
        <rect id="Rectangle" fill="#FFFFFF" opacity="0" x="0" y="0" width="96" height="96"></rect>
        <rect id="Rectangle" fill="#FFFFFF" opacity="0" x="0" y="0" width="96" height="96"></rect>
        <path d="M45.9941235,74 C54.9854318,74 69.6780575,74 87.6606742,74 C90.0634231,74 92.011236,72.209139 92.011236,70 L92.011236,14 C92.011236,11.790861 90.0634231,10 87.6606742,10 L9.3505618,10 C6.94781286,10 5,11.790861 5,14 L5,70 C5,72.209139 6.94781286,74 9.3505618,74 C14.2818005,74 16.7481211,74 18.9984525,74" id="Path" stroke="#FFFFFF" stroke-width="3" fill-rule="nonzero"></path>
        <line x1="5.13584086" y1="21.4600204" x2="92.0919047" y2="21.5" id="Path-2" stroke="#FFFFFF" stroke-width="3"></line>
        <path d="M37.2668539,67 C39.6830997,67 41.8705997,67.9793771 43.4540383,69.5628157 C45.0374768,71.1462542 46.0168539,73.3337542 46.0168539,75.75 L46.0168539,75.75 L46.0168539,82 C46.0168539,82.6903559 45.7370319,83.3153559 45.2846209,83.767767 C44.8322099,84.220178 44.2072099,84.5 43.5168539,84.5 L43.5168539,84.5 L19.8764045,84.5 C19.1860486,84.5 18.5610486,84.220178 18.1086375,83.767767 C17.6562265,83.3153559 17.3764045,82.6903559 17.3764045,82 L17.3764045,82 L17.3764045,75.75 C17.3764045,73.3337542 18.3557816,71.1462542 19.9392202,69.5628157 C21.5226587,67.9793771 23.7101587,67 26.1264045,67 L26.1264045,67 Z M31.6966292,46.5 C33.9688378,46.5 36.0289278,47.3710272 37.5190032,48.7886807 C38.9813531,50.1799561 39.892896,52.0999969 39.892896,54.225 C39.892896,56.3500031 38.9813531,58.2700439 37.5190032,59.6613193 C36.0289278,61.0789728 33.9688378,61.95 31.6966292,61.95 C29.4244207,61.95 27.3643306,61.0789728 25.8742552,59.6613193 C24.4119053,58.2700439 23.5003625,56.3500031 23.5003625,54.225 C23.5003625,52.0999969 24.4119053,50.1799561 25.8742552,48.7886807 C27.3643306,47.3710272 29.4244207,46.5 31.6966292,46.5 Z" id="Combined-Shape" stroke="#FFFFFF" stroke-width="3"></path>
        <path d="M63.3370787,28.5 C67.5107554,28.5 71.6854995,30.0636667 74.8703148,33.1952006 C78.0451635,36.3169348 79.6348315,40.4078892 79.6348315,44.5 C79.6348315,48.5921108 78.0451635,52.6830652 74.8703148,55.8047994 C72.2089387,58.4216512 68.8561444,59.9438741 65.3904605,60.3733252 C61.646888,60.8372109 57.7704895,60.0278296 54.4890978,57.9410736 L54.4890978,57.9410736 L48.6615139,59.534631 L49.8907007,53.5464545 C47.6335324,50.3217712 46.7166149,46.4634635 47.1393875,42.7239188 C47.5330003,39.2423007 49.0890708,35.8645547 51.8038425,33.1952006 C54.9886578,30.0636667 59.1634019,28.5 63.3370787,28.5 Z" id="Combined-Shape" stroke="#FFFFFF" stroke-width="3"></path>
        <path d="M65.7348315,40 C64.6165393,40 63.543236,40.5297003 62.8426966,41.3667575 C62.1421573,40.5297003 61.0688539,40 59.9505618,40 C57.9710562,40 56.4157303,41.5825613 56.4157303,43.5967302 C56.4157303,46.0686649 58.6008989,48.0828338 61.9107865,51.1433243 L62.8426966,52 L63.7746067,51.1367847 C67.0844944,48.0828338 69.2696629,46.0686649 69.2696629,43.5967302 C69.2696629,41.5825613 67.7143371,40 65.7348315,40 Z" id="Path" stroke="#FFFFFF" stroke-width="3" fill-rule="nonzero"></path>
    </g>
</svg>